<mxfile host="Electron" agent="Mozilla/5.0 (Windows NT 10.0; Win64; x64) AppleWebKit/537.36 (KHTML, like Gecko) draw.io/28.1.2 Chrome/138.0.7204.243 Electron/37.4.0 Safari/537.36" version="28.1.2">
  <diagram id="task-mgmt" name="UseCase">
    <mxGraphModel dx="1048" dy="688" grid="1" gridSize="10" guides="1" tooltips="1" connect="1" arrows="1" fold="1" page="1" pageScale="1" pageWidth="827" pageHeight="1169" math="0" shadow="0">
      <root>
        <mxCell id="0" />
        <mxCell id="1" parent="0" />
        <mxCell id="2" value="" style="shape=rectangle;rounded=1;whiteSpace=wrap;html=1;" parent="1" vertex="1">
          <mxGeometry x="200" y="40" width="600" height="600" as="geometry" />
        </mxCell>
        <mxCell id="3" value="" style="shape=actor;verticalAlign=top;" parent="1" vertex="1">
          <mxGeometry x="20" y="190" width="60" height="90" as="geometry" />
        </mxCell>
        <mxCell id="10" value="Register" style="ellipse;whiteSpace=wrap;html=1;" parent="1" vertex="1">
          <mxGeometry x="250" y="70" width="140" height="40" as="geometry" />
        </mxCell>
        <mxCell id="11" value="Login" style="ellipse;whiteSpace=wrap;html=1;" parent="1" vertex="1">
          <mxGeometry x="250" y="140" width="140" height="40" as="geometry" />
        </mxCell>
        <mxCell id="12" value="Logout" style="ellipse;whiteSpace=wrap;html=1;" parent="1" vertex="1">
          <mxGeometry x="210" y="300" width="120" height="40" as="geometry" />
        </mxCell>
        <mxCell id="13" value="Add Task" style="ellipse;whiteSpace=wrap;html=1;" parent="1" vertex="1">
          <mxGeometry x="440" y="60" width="140" height="40" as="geometry" />
        </mxCell>
        <mxCell id="14" value="Mark Task Completed" style="ellipse;whiteSpace=wrap;html=1;" parent="1" vertex="1">
          <mxGeometry x="430" y="140" width="140" height="40" as="geometry" />
        </mxCell>
        <mxCell id="15" value="Edit Task" style="ellipse;whiteSpace=wrap;html=1;" parent="1" vertex="1">
          <mxGeometry x="490" y="200" width="140" height="40" as="geometry" />
        </mxCell>
        <mxCell id="16" value="Delete Task" style="ellipse;whiteSpace=wrap;html=1;" parent="1" vertex="1">
          <mxGeometry x="520" y="260" width="140" height="40" as="geometry" />
        </mxCell>
        <mxCell id="17" value="Filter Tasks" style="ellipse;whiteSpace=wrap;html=1;" parent="1" vertex="1">
          <mxGeometry x="540" y="350" width="110" height="40" as="geometry" />
        </mxCell>
        <mxCell id="18" value="Categorize Task" style="ellipse;whiteSpace=wrap;html=1;" parent="1" vertex="1">
          <mxGeometry x="660" y="70" width="120" height="40" as="geometry" />
        </mxCell>
        <mxCell id="19" value="Set Task Priority" style="ellipse;whiteSpace=wrap;html=1;" parent="1" vertex="1">
          <mxGeometry x="660" y="130" width="120" height="40" as="geometry" />
        </mxCell>
        <mxCell id="20" value="Set Deadline" style="ellipse;whiteSpace=wrap;html=1;" parent="1" vertex="1">
          <mxGeometry x="660" y="200" width="120" height="40" as="geometry" />
        </mxCell>
        <mxCell id="21" value="Get Reminder" style="ellipse;whiteSpace=wrap;html=1;" parent="1" vertex="1">
          <mxGeometry x="660" y="310" width="120" height="40" as="geometry" />
        </mxCell>
        <mxCell id="22" value="Search Tasks" style="ellipse;whiteSpace=wrap;html=1;" parent="1" vertex="1">
          <mxGeometry x="490" y="530" width="140" height="40" as="geometry" />
        </mxCell>
        <mxCell id="23" value="View Tasks" style="ellipse;whiteSpace=wrap;html=1;" parent="1" vertex="1">
          <mxGeometry x="520" y="440" width="140" height="40" as="geometry" />
        </mxCell>
        <mxCell id="24" value="View Calendar" style="ellipse;whiteSpace=wrap;html=1;" parent="1" vertex="1">
          <mxGeometry x="290" y="360" width="110" height="40" as="geometry" />
        </mxCell>
        <mxCell id="25" value="View Tasks by Date" style="ellipse;whiteSpace=wrap;html=1;" parent="1" vertex="1">
          <mxGeometry x="275" y="460" width="140" height="40" as="geometry" />
        </mxCell>
        <mxCell id="user-register" style="endArrow=block;" parent="1" source="3" target="10" edge="1">
          <mxGeometry relative="1" as="geometry" />
        </mxCell>
        <mxCell id="user-login" style="endArrow=block;" parent="1" source="3" target="11" edge="1">
          <mxGeometry relative="1" as="geometry" />
        </mxCell>
        <mxCell id="user-logout" style="endArrow=block;" parent="1" source="3" target="12" edge="1">
          <mxGeometry relative="1" as="geometry" />
        </mxCell>
        <mxCell id="login-Add Task" style="endArrow=block;" parent="1" source="11" target="13" edge="1">
          <mxGeometry relative="1" as="geometry" />
        </mxCell>
        <mxCell id="login-View Tasks" style="endArrow=block;" parent="1" source="11" target="14" edge="1">
          <mxGeometry relative="1" as="geometry" />
        </mxCell>
        <mxCell id="login-Edit Task" style="endArrow=block;" parent="1" source="11" target="15" edge="1">
          <mxGeometry relative="1" as="geometry" />
        </mxCell>
        <mxCell id="login-Delete Task" style="endArrow=block;" parent="1" source="11" target="16" edge="1">
          <mxGeometry relative="1" as="geometry" />
        </mxCell>
        <mxCell id="login-Mark Task Completed" style="endArrow=block;" parent="1" source="11" target="17" edge="1">
          <mxGeometry relative="1" as="geometry" />
        </mxCell>
        <mxCell id="login-Search Tasks" style="endArrow=block;" parent="1" source="11" target="22" edge="1">
          <mxGeometry relative="1" as="geometry" />
        </mxCell>
        <mxCell id="login-Filter Tasks" style="endArrow=block;" parent="1" source="11" target="23" edge="1">
          <mxGeometry relative="1" as="geometry" />
        </mxCell>
        <mxCell id="login-View Calendar" style="endArrow=block;" parent="1" source="11" target="24" edge="1">
          <mxGeometry relative="1" as="geometry" />
        </mxCell>
        <mxCell id="CLd5mnNJzpOhKWs6IPm6-29" value="User" style="text;html=1;align=center;verticalAlign=middle;resizable=0;points=[];autosize=1;strokeColor=none;fillColor=none;fontFamily=Helvetica;fontSize=12;fontColor=default;fontStyle=0;" vertex="1" parent="1">
          <mxGeometry x="25" y="290" width="50" height="30" as="geometry" />
        </mxCell>
        <mxCell id="CLd5mnNJzpOhKWs6IPm6-30" value="&lt;font style=&quot;font-size: 22px;&quot;&gt;I&#39;ll-Do App&amp;nbsp; System&lt;/font&gt;" style="text;html=1;align=center;verticalAlign=middle;resizable=0;points=[];autosize=1;strokeColor=none;fillColor=none;fontFamily=Helvetica;fontSize=12;fontColor=default;fontStyle=1;" vertex="1" parent="1">
          <mxGeometry x="395" y="585" width="210" height="40" as="geometry" />
        </mxCell>
        <mxCell id="CLd5mnNJzpOhKWs6IPm6-31" value="&amp;lt;&amp;lt;extends&amp;gt;&amp;gt;" style="endArrow=block;endSize=16;endFill=0;html=1;rounded=0;fontFamily=Helvetica;fontSize=12;fontColor=default;fontStyle=0;entryX=1;entryY=0.5;entryDx=0;entryDy=0;exitX=0.349;exitY=0.012;exitDx=0;exitDy=0;exitPerimeter=0;" edge="1" parent="1" source="18" target="13">
          <mxGeometry width="160" relative="1" as="geometry">
            <mxPoint x="720" y="89" as="sourcePoint" />
            <mxPoint x="610" y="89.47" as="targetPoint" />
          </mxGeometry>
        </mxCell>
        <mxCell id="CLd5mnNJzpOhKWs6IPm6-32" value="&amp;lt;&amp;lt;extends&amp;gt;&amp;gt;" style="endArrow=block;endSize=16;endFill=0;html=1;rounded=0;fontFamily=Helvetica;fontSize=12;fontColor=default;fontStyle=0;entryX=1;entryY=1;entryDx=0;entryDy=0;exitX=0.083;exitY=0.25;exitDx=0;exitDy=0;exitPerimeter=0;" edge="1" parent="1" source="19" target="13">
          <mxGeometry width="160" relative="1" as="geometry">
            <mxPoint x="670" y="100" as="sourcePoint" />
            <mxPoint x="548" y="110" as="targetPoint" />
          </mxGeometry>
        </mxCell>
        <mxCell id="CLd5mnNJzpOhKWs6IPm6-34" value="&amp;lt;&amp;lt;extends&amp;gt;&amp;gt;" style="endArrow=block;endSize=16;endFill=0;html=1;rounded=0;fontFamily=Helvetica;fontSize=12;fontColor=default;fontStyle=0;entryX=0.714;entryY=1.003;entryDx=0;entryDy=0;exitX=0;exitY=0;exitDx=0;exitDy=0;entryPerimeter=0;" edge="1" parent="1" source="20" target="13">
          <mxGeometry width="160" relative="1" as="geometry">
            <mxPoint x="650" y="176" as="sourcePoint" />
            <mxPoint x="549" y="140" as="targetPoint" />
          </mxGeometry>
        </mxCell>
        <mxCell id="CLd5mnNJzpOhKWs6IPm6-35" value="&amp;lt;&amp;lt;extends&amp;gt;&amp;gt;" style="endArrow=block;endSize=16;endFill=0;html=1;rounded=0;fontFamily=Helvetica;fontSize=12;fontColor=default;fontStyle=0;entryX=0.5;entryY=1;entryDx=0;entryDy=0;exitX=0.5;exitY=0;exitDx=0;exitDy=0;" edge="1" parent="1" source="21" target="20">
          <mxGeometry x="0.0145" width="160" relative="1" as="geometry">
            <mxPoint x="710" y="240" as="sourcePoint" />
            <mxPoint x="582" y="164" as="targetPoint" />
            <mxPoint as="offset" />
          </mxGeometry>
        </mxCell>
        <mxCell id="CLd5mnNJzpOhKWs6IPm6-39" value="&amp;lt;&amp;lt;include&amp;gt;&amp;gt;" style="html=1;verticalAlign=bottom;endArrow=open;dashed=1;endSize=8;curved=0;rounded=0;fontFamily=Helvetica;fontSize=12;fontColor=default;fontStyle=0;entryX=0.568;entryY=-0.07;entryDx=0;entryDy=0;exitX=0.55;exitY=1.051;exitDx=0;exitDy=0;entryPerimeter=0;exitPerimeter=0;" edge="1" parent="1" source="17" target="23">
          <mxGeometry x="0.2386" relative="1" as="geometry">
            <mxPoint x="533" y="322" as="sourcePoint" />
            <mxPoint x="500" y="390" as="targetPoint" />
            <mxPoint as="offset" />
          </mxGeometry>
        </mxCell>
        <mxCell id="CLd5mnNJzpOhKWs6IPm6-40" value="&amp;lt;&amp;lt;include&amp;gt;&amp;gt;" style="html=1;verticalAlign=bottom;endArrow=open;dashed=1;endSize=8;curved=0;rounded=0;fontFamily=Helvetica;fontSize=12;fontColor=default;fontStyle=0;entryX=0.454;entryY=0.962;entryDx=0;entryDy=0;exitX=0.609;exitY=0.011;exitDx=0;exitDy=0;exitPerimeter=0;entryPerimeter=0;" edge="1" parent="1" source="22" target="23">
          <mxGeometry x="-0.1593" y="-6" relative="1" as="geometry">
            <mxPoint x="502" y="438" as="sourcePoint" />
            <mxPoint x="479" y="506" as="targetPoint" />
            <mxPoint as="offset" />
          </mxGeometry>
        </mxCell>
        <mxCell id="CLd5mnNJzpOhKWs6IPm6-41" value="&amp;lt;&amp;lt;extends&amp;gt;&amp;gt;" style="endArrow=block;endSize=16;endFill=0;html=1;rounded=0;fontFamily=Helvetica;fontSize=12;fontColor=default;fontStyle=0;entryX=0.466;entryY=1.03;entryDx=0;entryDy=0;exitX=0.466;exitY=-0.051;exitDx=0;exitDy=0;entryPerimeter=0;exitPerimeter=0;" edge="1" parent="1" source="25" target="24">
          <mxGeometry x="-0.3672" width="160" relative="1" as="geometry">
            <mxPoint x="483" y="516" as="sourcePoint" />
            <mxPoint x="345" y="420" as="targetPoint" />
            <mxPoint as="offset" />
          </mxGeometry>
        </mxCell>
      </root>
    </mxGraphModel>
  </diagram>
</mxfile>
